<svg xmlns="http://www.w3.org/2000/svg" viewBox="0 0 64 64" role="img" aria-labelledby="title">
  <title id="title">Patrick Fanella monogram</title>
  <rect width="64" height="64" fill="#21222c" />
  <path fill="#805bca" d="M0 0h64v6H0zM0 58h64v6H0zM0 6h6v52H0zM58 6h6v52h-6z" />
  <path fill="#bd93f9" d="M6 6h52v4H6zM6 54h52v4H6zM6 10h4v44H6zM54 10h4v44h-4z" />
  <path fill="#50fa7b" d="M15 15h7v35h-7zm7 0h11v7H22zm0 14h11v7H22zm11-7h7v7h-7zm10-7h7v35h-7zm7 0h4v7h-4zm0 14h4v7h-4z" />
  <rect x="50" y="46" width="4" height="4" fill="#8be9fd" />
</svg>
